<svg width="212" height="202" viewBox="0 0 212 202" fill="none" xmlns="http://www.w3.org/2000/svg">
<rect width="212" height="202" rx="30" fill="#F4F8FC"/>
<path d="M50.5456 20.812C50.5456 19.996 50.7336 19.264 51.1096 18.616C51.4936 17.968 52.0096 17.464 52.6576 17.104C53.3136 16.736 54.0296 16.552 54.8056 16.552C55.6936 16.552 56.4816 16.772 57.1696 17.212C57.8656 17.644 58.3696 18.26 58.6816 19.06H57.0376C56.8216 18.62 56.5216 18.292 56.1376 18.076C55.7536 17.86 55.3096 17.752 54.8056 17.752C54.2536 17.752 53.7616 17.876 53.3296 18.124C52.8976 18.372 52.5576 18.728 52.3096 19.192C52.0696 19.656 51.9496 20.196 51.9496 20.812C51.9496 21.428 52.0696 21.968 52.3096 22.432C52.5576 22.896 52.8976 23.256 53.3296 23.512C53.7616 23.76 54.2536 23.884 54.8056 23.884C55.3096 23.884 55.7536 23.776 56.1376 23.56C56.5216 23.344 56.8216 23.016 57.0376 22.576H58.6816C58.3696 23.376 57.8656 23.992 57.1696 24.424C56.4816 24.856 55.6936 25.072 54.8056 25.072C54.0216 25.072 53.3056 24.892 52.6576 24.532C52.0096 24.164 51.4936 23.656 51.1096 23.008C50.7336 22.36 50.5456 21.628 50.5456 20.812ZM64.6148 25L62.6948 21.664H61.6508V25H60.2828V16.66H63.1628C63.8028 16.66 64.3428 16.772 64.7828 16.996C65.2308 17.22 65.5628 17.52 65.7788 17.896C66.0028 18.272 66.1148 18.692 66.1148 19.156C66.1148 19.7 65.9548 20.196 65.6348 20.644C65.3228 21.084 64.8388 21.384 64.1828 21.544L66.2468 25H64.6148ZM61.6508 20.572H63.1628C63.6748 20.572 64.0588 20.444 64.3148 20.188C64.5788 19.932 64.7108 19.588 64.7108 19.156C64.7108 18.724 64.5828 18.388 64.3268 18.148C64.0708 17.9 63.6828 17.776 63.1628 17.776H61.6508V20.572ZM69.2328 16.66V25H67.8648V16.66H69.2328ZM76.4169 16.66V17.776H74.1969V25H72.8289V17.776H70.5969V16.66H76.4169ZM79.1703 16.66V25H77.8023V16.66H79.1703ZM80.5104 20.812C80.5104 19.996 80.6984 19.264 81.0744 18.616C81.4584 17.968 81.9744 17.464 82.6224 17.104C83.2784 16.736 83.9944 16.552 84.7704 16.552C85.6584 16.552 86.4464 16.772 87.1344 17.212C87.8304 17.644 88.3344 18.26 88.6464 19.06H87.0024C86.7864 18.62 86.4864 18.292 86.1024 18.076C85.7184 17.86 85.2744 17.752 84.7704 17.752C84.2184 17.752 83.7264 17.876 83.2944 18.124C82.8624 18.372 82.5224 18.728 82.2744 19.192C82.0344 19.656 81.9144 20.196 81.9144 20.812C81.9144 21.428 82.0344 21.968 82.2744 22.432C82.5224 22.896 82.8624 23.256 83.2944 23.512C83.7264 23.76 84.2184 23.884 84.7704 23.884C85.2744 23.884 85.7184 23.776 86.1024 23.56C86.4864 23.344 86.7864 23.016 87.0024 22.576H88.6464C88.3344 23.376 87.8304 23.992 87.1344 24.424C86.4464 24.856 85.6584 25.072 84.7704 25.072C83.9864 25.072 83.2704 24.892 82.6224 24.532C81.9744 24.164 81.4584 23.656 81.0744 23.008C80.6984 22.36 80.5104 21.628 80.5104 20.812ZM95.2757 23.296H91.7837L91.1837 25H89.7557L92.7437 16.648H94.3277L97.3157 25H95.8757L95.2757 23.296ZM94.8917 22.18L93.5357 18.304L92.1677 22.18H94.8917ZM99.9828 23.896H102.803V25H98.6148V16.66H99.9828V23.896ZM112.452 16.66V17.776H110.232V25H108.864V17.776H106.632V16.66H112.452ZM120.498 16.66V25H119.13V21.352H115.206V25H113.838V16.66H115.206V20.236H119.13V16.66H120.498ZM123.666 16.66V25H122.298V16.66H123.666ZM132.315 25H130.947L126.831 18.772V25H125.463V16.648H126.831L130.947 22.864V16.648H132.315V25ZM138.707 25L135.479 21.268V25H134.111V16.66H135.479V20.464L138.719 16.66H140.435L136.811 20.836L140.495 25H138.707ZM143.073 16.66V25H141.705V16.66H143.073ZM151.721 25H150.353L146.237 18.772V25H144.869V16.648H146.237L150.353 22.864V16.648H151.721V25ZM159.553 19.06C159.337 18.644 159.037 18.332 158.653 18.124C158.269 17.908 157.825 17.8 157.321 17.8C156.769 17.8 156.277 17.924 155.845 18.172C155.413 18.42 155.073 18.772 154.825 19.228C154.585 19.684 154.465 20.212 154.465 20.812C154.465 21.412 154.585 21.944 154.825 22.408C155.073 22.864 155.413 23.216 155.845 23.464C156.277 23.712 156.769 23.836 157.321 23.836C158.065 23.836 158.669 23.628 159.133 23.212C159.597 22.796 159.881 22.232 159.985 21.52H156.853V20.428H161.449V21.496C161.361 22.144 161.129 22.74 160.753 23.284C160.385 23.828 159.901 24.264 159.301 24.592C158.709 24.912 158.049 25.072 157.321 25.072C156.537 25.072 155.821 24.892 155.173 24.532C154.525 24.164 154.009 23.656 153.625 23.008C153.249 22.36 153.061 21.628 153.061 20.812C153.061 19.996 153.249 19.264 153.625 18.616C154.009 17.968 154.525 17.464 155.173 17.104C155.829 16.736 156.545 16.552 157.321 16.552C158.209 16.552 158.997 16.772 159.685 17.212C160.381 17.644 160.885 18.26 161.197 19.06H159.553Z" fill="#666666"/>
<path d="M167.232 184L165.312 180.664H164.268V184H162.9V175.66H165.78C166.42 175.66 166.96 175.772 167.4 175.996C167.848 176.22 168.18 176.52 168.396 176.896C168.62 177.272 168.732 177.692 168.732 178.156C168.732 178.7 168.572 179.196 168.252 179.644C167.94 180.084 167.456 180.384 166.8 180.544L168.864 184H167.232ZM164.268 179.572H165.78C166.292 179.572 166.676 179.444 166.932 179.188C167.196 178.932 167.328 178.588 167.328 178.156C167.328 177.724 167.2 177.388 166.944 177.148C166.688 176.9 166.3 176.776 165.78 176.776H164.268V179.572ZM170.026 179.812C170.026 178.996 170.214 178.264 170.59 177.616C170.974 176.968 171.49 176.464 172.138 176.104C172.794 175.736 173.51 175.552 174.286 175.552C175.174 175.552 175.962 175.772 176.65 176.212C177.346 176.644 177.85 177.26 178.162 178.06H176.518C176.302 177.62 176.002 177.292 175.618 177.076C175.234 176.86 174.79 176.752 174.286 176.752C173.734 176.752 173.242 176.876 172.81 177.124C172.378 177.372 172.038 177.728 171.79 178.192C171.55 178.656 171.43 179.196 171.43 179.812C171.43 180.428 171.55 180.968 171.79 181.432C172.038 181.896 172.378 182.256 172.81 182.512C173.242 182.76 173.734 182.884 174.286 182.884C174.79 182.884 175.234 182.776 175.618 182.56C176.002 182.344 176.302 182.016 176.518 181.576H178.162C177.85 182.376 177.346 182.992 176.65 183.424C175.962 183.856 175.174 184.072 174.286 184.072C173.502 184.072 172.786 183.892 172.138 183.532C171.49 183.164 170.974 182.656 170.59 182.008C170.214 181.36 170.026 180.628 170.026 179.812Z" fill="#666666"/>
<path d="M25.496 173L22.268 169.268V173H20.9V164.66H22.268V168.464L25.508 164.66H27.224L23.6 168.836L27.284 173H25.496ZM37.2778 164.66V173H35.9098V167.288L33.3658 173H32.4178L29.8618 167.288V173H28.4938V164.66H29.9698L32.8978 171.2L35.8138 164.66H37.2778Z" fill="#666666"/>
<path d="M14.704 70.084C13.928 70.084 13.212 69.904 12.556 69.544C11.908 69.176 11.392 68.668 11.008 68.02C10.632 67.364 10.444 66.628 10.444 65.812C10.444 64.996 10.632 64.264 11.008 63.616C11.392 62.968 11.908 62.464 12.556 62.104C13.212 61.736 13.928 61.552 14.704 61.552C15.488 61.552 16.204 61.736 16.852 62.104C17.508 62.464 18.024 62.968 18.4 63.616C18.776 64.264 18.964 64.996 18.964 65.812C18.964 66.628 18.776 67.364 18.4 68.02C18.024 68.668 17.508 69.176 16.852 69.544C16.204 69.904 15.488 70.084 14.704 70.084ZM14.704 68.896C15.256 68.896 15.748 68.772 16.18 68.524C16.612 68.268 16.948 67.908 17.188 67.444C17.436 66.972 17.56 66.428 17.56 65.812C17.56 65.196 17.436 64.656 17.188 64.192C16.948 63.728 16.612 63.372 16.18 63.124C15.748 62.876 15.256 62.752 14.704 62.752C14.152 62.752 13.66 62.876 13.228 63.124C12.796 63.372 12.456 63.728 12.208 64.192C11.968 64.656 11.848 65.196 11.848 65.812C11.848 66.428 11.968 66.972 12.208 67.444C12.456 67.908 12.796 68.268 13.228 68.524C13.66 68.772 14.152 68.896 14.704 68.896ZM25.6982 61.66V62.776H23.4782V70H22.1102V62.776H19.8782V61.66H25.6982ZM33.7436 61.66V70H32.3756V66.352H28.4516V70H27.0836V61.66H28.4516V65.236H32.3756V61.66H33.7436ZM36.9125 62.764V65.212H39.7925V66.328H36.9125V68.884H40.1525V70H35.5445V61.648H40.1525V62.764H36.9125ZM46.1695 70L44.2495 66.664H43.2055V70H41.8375V61.66H44.7175C45.3575 61.66 45.8975 61.772 46.3375 61.996C46.7855 62.22 47.1175 62.52 47.3335 62.896C47.5575 63.272 47.6695 63.692 47.6695 64.156C47.6695 64.7 47.5095 65.196 47.1895 65.644C46.8775 66.084 46.3935 66.384 45.7375 66.544L47.8015 70H46.1695ZM43.2055 65.572H44.7175C45.2295 65.572 45.6135 65.444 45.8695 65.188C46.1335 64.932 46.2655 64.588 46.2655 64.156C46.2655 63.724 46.1375 63.388 45.8815 63.148C45.6255 62.9 45.2375 62.776 44.7175 62.776H43.2055V65.572ZM52.1675 70.084C51.6075 70.084 51.1035 69.988 50.6555 69.796C50.2075 69.596 49.8555 69.316 49.5995 68.956C49.3435 68.596 49.2155 68.176 49.2155 67.696H50.6795C50.7115 68.056 50.8515 68.352 51.0995 68.584C51.3555 68.816 51.7115 68.932 52.1675 68.932C52.6395 68.932 53.0075 68.82 53.2715 68.596C53.5355 68.364 53.6675 68.068 53.6675 67.708C53.6675 67.428 53.5835 67.2 53.4155 67.024C53.2555 66.848 53.0515 66.712 52.8035 66.616C52.5635 66.52 52.2275 66.416 51.7955 66.304C51.2515 66.16 50.8075 66.016 50.4635 65.872C50.1275 65.72 49.8395 65.488 49.5995 65.176C49.3595 64.864 49.2395 64.448 49.2395 63.928C49.2395 63.448 49.3595 63.028 49.5995 62.668C49.8395 62.308 50.1755 62.032 50.6075 61.84C51.0395 61.648 51.5395 61.552 52.1075 61.552C52.9155 61.552 53.5755 61.756 54.0875 62.164C54.6075 62.564 54.8955 63.116 54.9515 63.82H53.4395C53.4155 63.516 53.2715 63.256 53.0075 63.04C52.7435 62.824 52.3955 62.716 51.9635 62.716C51.5715 62.716 51.2515 62.816 51.0035 63.016C50.7555 63.216 50.6315 63.504 50.6315 63.88C50.6315 64.136 50.7075 64.348 50.8595 64.516C51.0195 64.676 51.2195 64.804 51.4595 64.9C51.6995 64.996 52.0275 65.1 52.4435 65.212C52.9955 65.364 53.4435 65.516 53.7875 65.668C54.1395 65.82 54.4355 66.056 54.6755 66.376C54.9235 66.688 55.0475 67.108 55.0475 67.636C55.0475 68.06 54.9315 68.46 54.6995 68.836C54.4755 69.212 54.1435 69.516 53.7035 69.748C53.2715 69.972 52.7595 70.084 52.1675 70.084Z" fill="#666666"/>
<path d="M187.624 91.66C188.512 91.66 189.288 91.832 189.952 92.176C190.624 92.512 191.14 93 191.5 93.64C191.868 94.272 192.052 95.012 192.052 95.86C192.052 96.708 191.868 97.444 191.5 98.068C191.14 98.692 190.624 99.172 189.952 99.508C189.288 99.836 188.512 100 187.624 100H184.9V91.66H187.624ZM187.624 98.884C188.6 98.884 189.348 98.62 189.868 98.092C190.388 97.564 190.648 96.82 190.648 95.86C190.648 94.892 190.388 94.136 189.868 93.592C189.348 93.048 188.6 92.776 187.624 92.776H186.268V98.884H187.624ZM198.796 91.66V92.776H196.576V100H195.208V92.776H192.976V91.66H198.796Z" fill="#666666"/>
<path d="M104.528 36.69C105.406 36.0513 106.594 36.0513 107.472 36.69L173.193 84.543C174.067 85.1796 174.433 86.3062 174.099 87.335L148.993 164.771C148.659 165.802 147.699 166.5 146.615 166.5H65.3847C64.3011 166.5 63.3408 165.802 63.0066 164.771L37.9007 87.335C37.5672 86.3062 37.933 85.1796 38.8073 84.543L104.528 36.69Z" stroke="#D8D8D8"/>
<path d="M104.538 48.5714C105.411 47.9423 106.589 47.9423 107.462 48.5714L161.272 87.352C162.155 87.9886 162.525 89.1237 162.186 90.1584L141.642 152.877C141.306 153.904 140.347 154.598 139.267 154.598H72.7334C71.6526 154.598 70.6941 153.904 70.3576 152.877L49.8138 90.1584C49.4749 89.1237 49.8446 87.9886 50.7279 87.352L104.538 48.5714Z" stroke="#D8D8D8"/>
<path d="M104.554 60.4424C105.42 59.8278 106.58 59.8278 107.446 60.4424L149.341 90.1608C150.238 90.7973 150.614 91.9455 150.266 92.9893L134.294 140.986C133.954 142.008 132.998 142.697 131.922 142.697H80.0783C79.0017 142.697 78.0461 142.008 77.7062 140.986L61.7334 92.9893C61.3861 91.9455 61.7618 90.7973 62.6591 90.1608L104.554 60.4424Z" stroke="#D8D8D8"/>
</svg>